<svg width="33" height="32" viewBox="0 0 33 32" fill="none" xmlns="http://www.w3.org/2000/svg">
<g clip-path="url(#clip0)">
<path d="M30.3535 8.36016C28.9227 5.90873 26.982 3.96793 24.5308 2.53732C22.0792 1.10664 19.4028 0.391479 16.4997 0.391479C13.597 0.391479 10.9197 1.10686 8.46868 2.53732C6.01725 3.96786 4.07659 5.90873 2.64584 8.36016C1.2153 10.8115 0.5 13.4884 0.5 16.3908C0.5 19.8772 1.51717 23.0123 3.55203 25.7968C5.58666 28.5815 8.21511 30.5085 11.4372 31.5778C11.8122 31.6474 12.0899 31.5985 12.2704 31.4322C12.451 31.2657 12.5412 31.0571 12.5412 30.8074C12.5412 30.7658 12.5376 30.3909 12.5307 29.6825C12.5235 28.974 12.5201 28.356 12.5201 27.8287L12.041 27.9115C11.7354 27.9675 11.35 27.9912 10.8847 27.9845C10.4196 27.978 9.93679 27.9293 9.43689 27.8386C8.93677 27.7488 8.4716 27.5405 8.04101 27.2141C7.61065 26.8877 7.30513 26.4605 7.12454 25.9331L6.91621 25.4537C6.77735 25.1345 6.55874 24.78 6.26009 24.3914C5.96143 24.0024 5.65941 23.7387 5.3539 23.5998L5.20803 23.4954C5.11084 23.426 5.02065 23.3423 4.93725 23.2452C4.85392 23.1481 4.79153 23.0509 4.74987 22.9535C4.70813 22.8561 4.74272 22.7762 4.85399 22.7135C4.96527 22.6508 5.16637 22.6204 5.45817 22.6204L5.87467 22.6827C6.15246 22.7383 6.49606 22.9046 6.90592 23.1826C7.31557 23.4603 7.65231 23.8213 7.91624 24.2656C8.23584 24.8351 8.62089 25.2692 9.07249 25.5678C9.52372 25.8665 9.97868 26.0155 10.4369 26.0155C10.8952 26.0155 11.2909 25.9808 11.6244 25.9117C11.9575 25.8422 12.27 25.7378 12.5618 25.599C12.6868 24.6681 13.0271 23.953 13.5825 23.4531C12.7909 23.3699 12.0793 23.2446 11.4472 23.078C10.8154 22.9112 10.1626 22.6405 9.48906 22.2651C8.8152 21.8903 8.2562 21.4248 7.81189 20.8696C7.36752 20.314 7.00283 19.5846 6.71832 18.6821C6.43368 17.7791 6.29132 16.7376 6.29132 15.5571C6.29132 13.8763 6.84003 12.446 7.93725 11.2654C7.42327 10.0017 7.47179 8.58512 8.08297 7.01572C8.48575 6.89058 9.08307 6.98449 9.87462 7.29687C10.6663 7.60939 11.246 7.87711 11.6142 8.09908C11.9824 8.32097 12.2774 8.50901 12.4996 8.66152C13.7915 8.30054 15.1247 8.12002 16.4996 8.12002C17.8745 8.12002 19.2079 8.30054 20.4999 8.66152L21.2915 8.16176C21.8329 7.82829 22.4722 7.52271 23.2078 7.24492C23.9439 6.96727 24.5068 6.8908 24.8959 7.01594C25.5206 8.58541 25.5763 10.0019 25.0622 11.2656C26.1593 12.4462 26.7082 13.8769 26.7082 15.5573C26.7082 16.7378 26.5654 17.7826 26.2812 18.6925C25.9966 19.6025 25.6288 20.3311 25.1775 20.88C24.7258 21.4288 24.1632 21.8906 23.4897 22.2654C22.8161 22.6404 22.163 22.9111 21.5312 23.0779C20.8992 23.2447 20.1875 23.3701 19.396 23.4534C20.1179 24.0782 20.479 25.0643 20.479 26.4115V30.8068C20.479 31.0565 20.5658 31.265 20.7396 31.4316C20.9132 31.5979 21.1873 31.6468 21.5624 31.5772C24.7849 30.508 27.4133 28.581 29.4479 25.7962C31.4822 23.0117 32.4998 19.8766 32.4998 16.3902C32.499 13.4882 31.7834 10.8115 30.3535 8.36016Z" fill="#27272A"/>
</g>
<defs>
<clipPath id="clip0">
<rect width="32" height="32" fill="white" transform="translate(0.5)"/>
</clipPath>
</defs>
</svg>
