<svg width="48" height="48" viewBox="0 0 48 48" fill="none" xmlns="http://www.w3.org/2000/svg">
<g clip-path="url(#clip0)">
<path d="M24.0001 0.0999146C10.7454 0.0999146 0 10.8902 0 24.2004C0 36.1381 8.65252 46.0245 19.9974 47.9389V29.2284H14.2079V22.4953H19.9974V17.5305C19.9974 11.7699 23.5011 8.63077 28.6193 8.63077C31.0706 8.63077 33.1772 8.8142 33.7887 8.89498V14.9163L30.2389 14.918C27.4561 14.918 26.9195 16.2457 26.9195 18.1946V22.4918H33.5597L32.6936 29.225H26.9195V48.0999C38.7941 46.6486 48 36.5104 48 24.1935C48 10.8902 37.2546 0.0999146 24.0001 0.0999146Z" fill="#27272A"/>
</g>
<defs>
<clipPath id="clip0">
<rect width="48" height="48" fill="white"/>
</clipPath>
</defs>
</svg>

