<svg width="33" height="32" viewBox="0 0 33 32" fill="none" xmlns="http://www.w3.org/2000/svg">
<g clip-path="url(#clip0)">
<path d="M16.5001 0.0666122C7.66358 0.0666122 0.5 7.26014 0.5 16.1336C0.5 24.0921 6.26835 30.683 13.8316 31.9593V19.4856H9.97191V14.9968H13.8316V11.687C13.8316 7.84663 16.1674 5.75385 19.5795 5.75385C21.2137 5.75385 22.6181 5.87613 23.0258 5.92999V9.9442L20.6593 9.94535C18.804 9.94535 18.4464 10.8305 18.4464 12.1297V14.9945H22.8731L22.2957 19.4833H18.4464V32.0666C26.3627 31.0991 32.5 24.3403 32.5 16.129C32.5 7.26014 25.3364 0.0666122 16.5001 0.0666122Z" fill="#27272A"/>
</g>
<defs>
<clipPath id="clip0">
<rect width="32" height="32" fill="white" transform="translate(0.5)"/>
</clipPath>
</defs>
</svg>
